<svg width="56" height="56" viewBox="0 0 56 56" fill="none" xmlns="http://www.w3.org/2000/svg">
<path d="M28 56C43.464 56 56 43.464 56 28C56 12.536 43.464 0 28 0C12.536 0 0 12.536 0 28C0 43.464 12.536 56 28 56ZM26 18C26 17.4696 26.2107 16.9609 26.5858 16.5858C26.9609 16.2107 27.4696 16 28 16C28.5304 16 29.0391 16.2107 29.4142 16.5858C29.7893 16.9609 30 17.4696 30 18V26H38C38.5304 26 39.0391 26.2107 39.4142 26.5858C39.7893 26.9609 40 27.4696 40 28C40 28.5304 39.7893 29.0391 39.4142 29.4142C39.0391 29.7893 38.5304 30 38 30H30V38C30 38.5304 29.7893 39.0391 29.4142 39.4142C29.0391 39.7893 28.5304 40 28 40C27.4696 40 26.9609 39.7893 26.5858 39.4142C26.2107 39.0391 26 38.5304 26 38V30H18C17.4696 30 16.9609 29.7893 16.5858 29.4142C16.2107 29.0391 16 28.5304 16 28C16 27.4696 16.2107 26.9609 16.5858 26.5858C16.9609 26.2107 17.4696 26 18 26H26V18Z" fill="#222F3E"/>
</svg>
